<?xml version="1.0" encoding="UTF-8" standalone="no"?>
<!-- Created with Inkscape (http://www.inkscape.org/) -->

<svg
   xmlns:dc="http://purl.org/dc/elements/1.1/"
   xmlns:cc="http://creativecommons.org/ns#"
   xmlns:rdf="http://www.w3.org/1999/02/22-rdf-syntax-ns#"
   xmlns:svg="http://www.w3.org/2000/svg"
   xmlns="http://www.w3.org/2000/svg"
   xmlns:sodipodi="http://sodipodi.sourceforge.net/DTD/sodipodi-0.dtd"
   xmlns:inkscape="http://www.inkscape.org/namespaces/inkscape"
   width="81.26712"
   height="81.26712"
   viewBox="0 0 21.501925 21.501927"
   version="1.1"
   id="svg15096"
   inkscape:export-filename="/home/calle/ymir/proj/daisylab/op6-ui/artwork/op6-64x64.png"
   inkscape:export-xdpi="76.716141"
   inkscape:export-ydpi="76.716141"
   inkscape:version="0.92.5 (2060ec1f9f, 2020-04-08)"
   sodipodi:docname="op6-64x64.svg">
  <defs
     id="defs15090" />
  <sodipodi:namedview
     id="base"
     pagecolor="#ffffff"
     bordercolor="#666666"
     borderopacity="1.0"
     inkscape:pageopacity="0.0"
     inkscape:pageshadow="2"
     inkscape:zoom="3.9405757"
     inkscape:cx="131.93075"
     inkscape:cy="-17.511059"
     inkscape:document-units="mm"
     inkscape:current-layer="layer1"
     showgrid="false"
     units="px"
     fit-margin-top="0"
     fit-margin-left="0"
     fit-margin-right="0"
     fit-margin-bottom="0"
     inkscape:window-width="1848"
     inkscape:window-height="1016"
     inkscape:window-x="72"
     inkscape:window-y="27"
     inkscape:window-maximized="1" />
  <metadata
     id="metadata15093">
    <rdf:RDF>
      <cc:Work
         rdf:about="">
        <dc:format>image/svg+xml</dc:format>
        <dc:type
           rdf:resource="http://purl.org/dc/dcmitype/StillImage" />
        <dc:title></dc:title>
      </cc:Work>
    </rdf:RDF>
  </metadata>
  <g
     inkscape:label="Layer 1"
     inkscape:groupmode="layer"
     id="layer1"
     transform="translate(-58.040703,-90.301307)">
    <path
       inkscape:connector-curvature="0"
       style="opacity:1;fill:#ffffff;fill-opacity:1;stroke:#000000;stroke-width:0.51302707;stroke-linecap:round;stroke-miterlimit:4;stroke-dasharray:none;stroke-dashoffset:0;stroke-opacity:1"
       d="m 66.544775,90.713883 c -0.346462,0 -0.625285,0.279339 -0.625285,0.625802 v 3.630786 h -6.595979 c -0.56855,0 -1.026295,0.457745 -1.026295,1.026294 v 14.367605 c 0,0.56855 0.457745,1.02629 1.026295,1.02629 h 14.367598 c 0.568549,0 1.026294,-0.45774 1.026294,-1.02629 v -6.41615 h 3.943428 c 0.346464,0 0.625284,-0.27934 0.625284,-0.6258 V 91.339685 c 0,-0.346463 -0.27882,-0.625802 -0.625284,-0.625802 z m 0.855762,1.324984 h 10.405049 c 0.08662,-4e-6 0.156062,0.06945 0.156062,0.156063 v 10.27173 c 0,0.0866 -0.06944,0.15657 -0.156062,0.15658 h -3.088183 v -6.626475 c 0,-0.568549 -0.457745,-1.026294 -1.026294,-1.026294 h -6.447152 v -2.775025 c 0,-0.08661 0.06996,-0.156575 0.15658,-0.156579 z m -7.280693,4.4974 h 12.775448 c 0.142137,0 0.256315,0.114178 0.256315,0.256315 v 12.775448 c 0,0.14214 -0.114178,0.25632 -0.256315,0.25632 H 60.119844 c -0.142137,0 -0.256315,-0.11418 -0.256315,-0.25632 V 96.792582 c 0,-0.142137 0.114178,-0.256315 0.256315,-0.256315 z"
       id="rect819" />
    <text
       xml:space="preserve"
       style="font-style:italic;font-variant:normal;font-weight:bold;font-stretch:normal;font-size:5.47340059px;line-height:1.25;font-family:sans-serif;-inkscape-font-specification:'sans-serif Bold Italic';letter-spacing:0px;word-spacing:0px;fill:#ffffff;fill-opacity:1;stroke:#000000;stroke-width:0.38536161;stroke-miterlimit:4;stroke-dasharray:none"
       x="60.269638"
       y="105.1702"
       id="text826"><tspan
         sodipodi:role="line"
         id="tspan824"
         x="60.269638"
         y="105.1702"
         style="fill:#ffffff;stroke:#000000;stroke-width:0.38536161;stroke-miterlimit:4;stroke-dasharray:none">OP6</tspan></text>
  </g>
</svg>
